<?xml version="1.0" encoding="utf-8"?>
<svg version="1.2" baseProfile="tiny" id="Warstwa_1"
     xmlns="http://www.w3.org/2000/svg" x="0px" y="0px" viewBox="0 0 24 24"
     overflow="visible" xml:space="preserve">
<path fill="none" stroke="#ffffff" stroke-width="0.5" stroke-miterlimit="10" d="M2.5,5h19C22.33,5,23,5.67,23,6.5v11
	c0,0.83-0.67,1.5-1.5,1.5h-19C1.67,19,1,18.33,1,17.5v-11C1,5.67,1.67,5,2.5,5z"/>
<g>
	<path  fill="#ffffff"  d="M5.9,15.35c2.3-2.29,3.6-3.67,3.6-4.91c0-0.87-0.47-1.49-1.45-1.49c-0.64,0-1.19,0.41-1.63,0.92L5.85,9.31
		c0.64-0.7,1.33-1.16,2.32-1.16c1.41,0,2.3,0.89,2.3,2.25c0,1.44-1.32,2.86-3.12,4.76c0.41-0.03,0.89-0.07,1.29-0.07h2.21v0.85H5.9
		V15.35z"/>
	<path  fill="#ffffff" d="M12.46,8.06h1.97c2.42,0,3.72,1.41,3.72,3.91c0,2.5-1.3,3.96-3.67,3.96h-2.01V8.06z M14.36,15.11
		c1.84,0,2.76-1.15,2.76-3.14c0-1.99-0.92-3.09-2.76-3.09h-0.89v6.23H14.36z"/>
</g>
<g>
	<path d="M26.23,15.08l0.5-0.64c0.46,0.48,1.06,0.9,1.95,0.9c0.93,0,1.59-0.54,1.59-1.4c0-0.91-0.63-1.52-2.44-1.52v-0.76
		c1.62,0,2.17-0.62,2.17-1.42c0-0.74-0.51-1.21-1.32-1.21c-0.64,0-1.18,0.32-1.63,0.78l-0.53-0.63c0.59-0.55,1.29-0.95,2.2-0.95
		c1.33,0,2.29,0.71,2.29,1.94c0,0.92-0.56,1.51-1.39,1.82v0.05c0.92,0.22,1.66,0.89,1.66,1.94c0,1.36-1.12,2.19-2.53,2.19
		C27.51,16.16,26.74,15.64,26.23,15.08z"/>
	<path d="M32.95,8.14h1.97c2.42,0,3.72,1.41,3.72,3.91c0,2.5-1.3,3.96-3.67,3.96h-2.01V8.14z M34.84,15.19
		c1.84,0,2.76-1.15,2.76-3.14s-0.92-3.09-2.76-3.09h-0.89v6.23H34.84z"/>
</g>
</svg>
