<?xml version="1.0" encoding="utf-8"?>
<!-- Generator: Adobe Illustrator 25.0.1, SVG Export Plug-In . SVG Version: 6.00 Build 0)  -->
<svg version="1.2" baseProfile="tiny" id="Warstwa_1"
     xmlns="http://www.w3.org/2000/svg" x="0px" y="0px" viewBox="0 0 24 24"
     overflow="visible" xml:space="preserve">
<g display="none">
	<path display="inline" d="M2.08,17.45c3.74-3.73,5.85-5.97,5.85-7.99c0-1.42-0.77-2.43-2.36-2.43c-1.04,0-1.94,0.66-2.64,1.49
		L2,7.62c1.04-1.14,2.16-1.89,3.77-1.89c2.3,0,3.73,1.45,3.73,3.66c0,2.33-2.14,4.65-5.08,7.74c0.67-0.05,1.45-0.11,2.09-0.11h3.6
		v1.38H2.08V17.45z"/>
	<path display="inline" d="M12.75,5.6h3.2c3.94,0,6.05,2.29,6.05,6.35c0,4.07-2.11,6.45-5.97,6.45h-3.27V5.6z M15.83,17.06
		c2.99,0,4.48-1.88,4.48-5.11c0-3.24-1.49-5.02-4.48-5.02h-1.45v10.13H15.83z"/>
</g>
<g>
	<path d="M2,16.72l0.8-1.04c0.74,0.77,1.7,1.45,3.15,1.45c1.5,0,2.56-0.87,2.56-2.26c0-1.47-1.01-2.45-3.93-2.45v-1.22
		c2.61,0,3.5-1.01,3.5-2.3c0-1.2-0.82-1.95-2.13-1.95c-1.03,0-1.9,0.52-2.63,1.25L2.46,7.2C3.41,6.32,4.54,5.67,6,5.67
		c2.14,0,3.69,1.14,3.69,3.13c0,1.48-0.9,2.43-2.24,2.93v0.08c1.49,0.35,2.68,1.44,2.68,3.13c0,2.2-1.81,3.52-4.07,3.52
		C4.07,18.46,2.83,17.63,2,16.72z"/>
	<path d="M12.84,5.54h3.17c3.9,0,5.99,2.27,5.99,6.3c0,4.03-2.09,6.39-5.92,6.39h-3.24V5.54z M15.89,16.9
		c2.96,0,4.44-1.86,4.44-5.06s-1.48-4.97-4.44-4.97h-1.44V16.9H15.89z"/>
</g>
</svg>
